<?xml version="1.0" encoding="utf-8"?>
<!-- Generator: Adobe Illustrator 27.9.0, SVG Export Plug-In . SVG Version: 6.00 Build 0)  -->
<svg version="1.1" id="Layer_1" xmlns="http://www.w3.org/2000/svg" xmlns:xlink="http://www.w3.org/1999/xlink" x="0px" y="0px"
	 viewBox="0 0 60.2 60" style="enable-background:new 0 0 60.2 60;" xml:space="preserve">
<style type="text/css">
	.st0{fill:#FFFFFF;}
	.st1{fill:#232B54;}
	.st2{clip-path:url(#SVGID_00000029038621476426104450000002745434059045242008_);fill:#84AEDB;}
	.st3{clip-path:url(#SVGID_00000029038621476426104450000002745434059045242008_);fill:#232B54;}
	.st4{clip-path:url(#SVGID_00000104680169497443777790000008574306296156311168_);fill:#232B54;}
	.st5{clip-path:url(#SVGID_00000104680169497443777790000008574306296156311168_);fill:#84AEDB;}
	.st6{clip-path:url(#SVGID_00000104680169497443777790000008574306296156311168_);}
</style>
<circle class="st0" cx="30.15" cy="30" r="29"/>
<g>
	<path class="st1" d="M21.2,10.81l0-0.01c0.07-0.09,0.11-0.23,0.12-0.41c0.01-0.18-0.02-0.39-0.11-0.63L20.36,7.3
		c-0.08-0.22-0.18-0.4-0.31-0.54S19.81,6.52,19.7,6.5l0-0.01l1.81-0.63c0.66-0.23,1.25-0.22,1.78,0.03s0.91,0.71,1.14,1.38
		c0.24,0.69,0.24,1.29-0.01,1.8c-0.25,0.51-0.75,0.89-1.5,1.16L21.2,10.81z M22.18,9.78l0.58-0.2c0.42-0.14,0.69-0.39,0.81-0.73
		c0.13-0.34,0.1-0.76-0.07-1.27c-0.18-0.53-0.43-0.88-0.73-1.06c-0.3-0.18-0.68-0.19-1.12-0.03L21.1,6.69L22.18,9.78z"/>
	<path class="st1" d="M26.81,9.2l0-0.01c0.09-0.08,0.16-0.2,0.21-0.38c0.05-0.17,0.06-0.39,0.03-0.63l-0.3-2.59
		c-0.03-0.25-0.09-0.46-0.18-0.61c-0.09-0.16-0.19-0.26-0.29-0.32l0-0.01l1.61-0.19l0,0.01c-0.09,0.08-0.16,0.2-0.21,0.38
		c-0.05,0.17-0.06,0.39-0.03,0.63l0.3,2.59c0.03,0.25,0.09,0.46,0.18,0.61c0.09,0.16,0.19,0.26,0.29,0.31l0,0.01L26.81,9.2z"/>
	<path class="st1" d="M33.76,4.52l0.02,1.21l-0.01,0.01c-0.07-0.15-0.17-0.27-0.32-0.38s-0.31-0.16-0.5-0.18l-0.49-0.04l-0.21,2.86
		c-0.02,0.27,0,0.49,0.07,0.68S32.46,9,32.57,9.07l0,0.01l-1.71-0.13l0-0.01c0.11-0.05,0.21-0.17,0.31-0.34s0.15-0.39,0.17-0.65
		l0.21-2.86l-0.5-0.04c-0.19-0.01-0.36,0.02-0.52,0.1c-0.16,0.08-0.28,0.19-0.37,0.32l-0.01-0.01l0.2-1.2
		c0.27,0.05,0.56,0.09,0.9,0.12l1.61,0.12C33.19,4.53,33.49,4.54,33.76,4.52z"/>
	<path class="st1" d="M38.49,9.24l0.01,0.01l-0.57,1.2c-0.19-0.1-0.45-0.2-0.75-0.29l-2.22-0.7l0-0.01
		c0.11-0.03,0.23-0.12,0.34-0.26s0.21-0.33,0.29-0.57l0.78-2.49c0.08-0.24,0.11-0.46,0.09-0.63c-0.02-0.18-0.06-0.31-0.14-0.41
		l0-0.01l2.26,0.71c0.3,0.09,0.53,0.15,0.68,0.16l-0.25,1.16l-0.01,0c-0.05-0.36-0.33-0.62-0.84-0.78l-0.83-0.26l-0.35,1.11
		l0.48,0.15c0.44,0.14,0.77,0.23,1,0.26l-0.52,1l-0.01,0c-0.02-0.3-0.2-0.5-0.56-0.61L36.8,7.8l-0.45,1.42l0.69,0.22
		C37.6,9.61,38.09,9.55,38.49,9.24z"/>
</g>
<g>
	<path class="st1" d="M14.88,50.26c-0.1,0.24-0.16,0.48-0.2,0.71c-0.04,0.23-0.04,0.42-0.02,0.55l-0.01,0.01l-1.15-1.01l0.01-0.01
		c0.08,0,0.17-0.04,0.26-0.14c0.09-0.1,0.19-0.26,0.29-0.49l0.06-0.16l-1.32-1.15l-0.15,0.08c-0.22,0.13-0.37,0.25-0.45,0.35
		s-0.12,0.19-0.11,0.27l-0.01,0.01l-1.07-0.94l0.01-0.01c0.35,0,0.76-0.14,1.22-0.39l2.57-1.47c0.18-0.12,0.3-0.24,0.36-0.36
		c0.06-0.11,0.08-0.22,0.07-0.32l0.01-0.01l1.35,1.18l-0.01,0.01c-0.11,0-0.21,0.04-0.31,0.11c-0.1,0.07-0.2,0.21-0.3,0.4
		L14.88,50.26z M15.28,47.03c-0.26,0.23-0.66,0.5-1.22,0.82l-0.66,0.38l0.98,0.86l0.28-0.71c0.24-0.62,0.46-1.06,0.63-1.33
		L15.28,47.03z"/>
	<path class="st1" d="M18.4,53.79c-0.64-0.33-1.04-0.8-1.22-1.4c-0.18-0.61-0.1-1.22,0.22-1.85c0.35-0.67,0.83-1.1,1.45-1.29
		c0.61-0.18,1.27-0.1,1.96,0.26c0.37,0.19,0.69,0.42,0.98,0.7l-0.44,1.09l-0.01,0c-0.03-0.25-0.11-0.47-0.27-0.67
		c-0.15-0.2-0.35-0.36-0.59-0.49c-0.42-0.22-0.82-0.25-1.21-0.11c-0.38,0.15-0.7,0.45-0.94,0.92c-0.25,0.47-0.33,0.91-0.26,1.32
		c0.07,0.4,0.31,0.71,0.72,0.92c0.31,0.16,0.6,0.24,0.87,0.23c0.27,0,0.55-0.07,0.83-0.21l0.01,0.01l-0.7,1
		C19.29,54.15,18.82,54.01,18.4,53.79z"/>
	<path class="st1" d="M26.25,55.08c0.03,0.26,0.08,0.5,0.16,0.72c0.08,0.22,0.16,0.39,0.24,0.5l0,0.01l-1.49-0.34l0-0.01
		c0.07-0.03,0.13-0.12,0.16-0.25c0.04-0.13,0.04-0.32,0.02-0.57l-0.02-0.17l-1.71-0.38l-0.09,0.14c-0.13,0.22-0.21,0.4-0.23,0.52
		c-0.02,0.13-0.01,0.22,0.03,0.29l0,0.01l-1.39-0.31l0-0.01c0.31-0.17,0.6-0.48,0.88-0.93l1.56-2.51c0.1-0.2,0.15-0.36,0.15-0.49
		c0-0.13-0.03-0.23-0.09-0.31l0-0.01l1.75,0.4l0,0.01c-0.09,0.05-0.17,0.14-0.22,0.25c-0.06,0.11-0.08,0.28-0.07,0.5L26.25,55.08z
		 M25.06,52.04c-0.12,0.33-0.34,0.76-0.68,1.3l-0.4,0.65l1.27,0.29l-0.09-0.76c-0.08-0.66-0.1-1.15-0.07-1.47L25.06,52.04z"/>
	<path class="st1" d="M28.94,56.48v-0.01c0.1-0.07,0.18-0.19,0.24-0.37c0.07-0.17,0.1-0.39,0.09-0.65l-0.09-2.67
		c-0.01-0.24-0.05-0.44-0.13-0.63s-0.17-0.3-0.27-0.36v-0.01l1.96-0.07c0.72-0.03,1.3,0.16,1.74,0.57s0.67,0.97,0.7,1.7
		c0.03,0.75-0.16,1.34-0.56,1.77s-1.01,0.65-1.83,0.68L28.94,56.48z M30.21,55.76l0.63-0.02c0.45-0.02,0.79-0.17,1.02-0.47
		c0.23-0.3,0.33-0.72,0.32-1.27c-0.02-0.57-0.15-0.99-0.4-1.26c-0.24-0.26-0.61-0.39-1.09-0.37l-0.6,0.02L30.21,55.76z"/>
	<path class="st1" d="M38.8,53.64l0.01,0l0.19,1.35c-0.22,0.03-0.49,0.09-0.81,0.18l-2.3,0.67l0-0.01c0.08-0.09,0.13-0.23,0.15-0.42
		c0.02-0.19,0-0.4-0.08-0.65l-0.75-2.57c-0.07-0.25-0.17-0.45-0.28-0.59c-0.12-0.14-0.23-0.23-0.35-0.27l0-0.01l2.34-0.68
		c0.31-0.09,0.53-0.17,0.67-0.25l0.45,1.13l-0.01,0.01c-0.25-0.28-0.64-0.34-1.16-0.18l-0.86,0.25l0.33,1.15l0.5-0.14
		c0.45-0.13,0.79-0.25,1-0.34l0.13,1.15l-0.01,0c-0.18-0.24-0.46-0.31-0.83-0.2l-0.6,0.17l0.43,1.46l0.71-0.21
		C38.26,54.46,38.63,54.13,38.8,53.64z"/>
	<path class="st1" d="M41.6,53.98l-0.01-0.01c0.06-0.36,0-0.71-0.18-1.05l-1.26-2.32c-0.1-0.19-0.23-0.35-0.39-0.5
		c-0.16-0.14-0.32-0.21-0.49-0.21l0-0.01l1.31-0.83c-0.02,0.15,0.12,0.31,0.42,0.46l1.18,0.61c0.4,0.21,0.72,0.45,0.95,0.72
		l0.02-0.01c-0.09-0.27-0.15-0.68-0.17-1.21l-0.07-1.35c-0.02-0.32-0.09-0.51-0.23-0.56l1.32-0.84l0.01,0.01
		c-0.08,0.14-0.09,0.32-0.03,0.54c0.06,0.22,0.15,0.41,0.27,0.58l1.58,2.11c0.26,0.34,0.55,0.54,0.86,0.62l0,0.01l-1.31,0.83
		l-0.01-0.01c0.03-0.09,0.02-0.21-0.02-0.36c-0.04-0.15-0.12-0.31-0.24-0.47l-0.84-1.13c-0.2-0.26-0.4-0.6-0.59-1.01l-0.02,0.01
		c0.1,0.38,0.16,0.8,0.17,1.25l0.04,1.48c0.01,0.37,0.07,0.66,0.17,0.86l-0.05,0.03c-0.15-0.18-0.39-0.35-0.72-0.51l-1.37-0.66
		c-0.36-0.18-0.71-0.41-1.03-0.71l-0.02,0.01c0.26,0.32,0.48,0.64,0.66,0.96l0.69,1.23c0.2,0.36,0.42,0.55,0.64,0.59l0,0.01
		L41.6,53.98z"/>
	<path class="st1" d="M46.9,43.74l0.9-1.02l0.01,0.01c-0.01,0.18,0.04,0.47,0.16,0.86l0.73,2.36l0.61,0.54
		c0.21,0.18,0.4,0.31,0.59,0.37c0.19,0.06,0.35,0.07,0.47,0.02l0.01,0.01l-1.17,1.31l-0.01-0.01c0.02-0.12-0.01-0.28-0.09-0.47
		c-0.08-0.19-0.23-0.37-0.43-0.55l-0.59-0.52l-2.47-0.45c-0.39-0.07-0.69-0.09-0.88-0.05l-0.01-0.01l0.96-1.08l0.01,0.01
		c0.09,0.16,0.3,0.27,0.62,0.34l1.02,0.21c0.16,0.03,0.32,0.07,0.47,0.13l0.02-0.02c-0.05-0.08-0.11-0.24-0.19-0.46l-0.33-0.98
		C47.22,44.01,47.08,43.82,46.9,43.74L46.9,43.74z"/>
</g>
<path class="st1" d="M30.12,58.57c-15.69,0-28.45-12.76-28.45-28.45S14.43,1.68,30.12,1.68c15.69,0,28.45,12.76,28.45,28.45
	S45.8,58.57,30.12,58.57z M30.12,2.38c-15.3,0-27.75,12.45-27.75,27.75c0,15.3,12.45,27.75,27.75,27.75s27.75-12.45,27.75-27.75
	C57.86,14.82,45.42,2.38,30.12,2.38z"/>
<path class="st1" d="M30.12,59.45c-16.17,0-29.33-13.16-29.33-29.33C0.79,13.95,13.95,0.8,30.12,0.8
	c16.17,0,29.33,13.16,29.33,29.33C59.44,46.29,46.29,59.45,30.12,59.45z M30.12,1.15c-15.98,0-28.98,13-28.98,28.98
	c0,15.98,13,28.97,28.98,28.97s28.98-13,28.98-28.97C59.09,14.15,46.09,1.15,30.12,1.15z"/>
<g>
	<defs>
		<path id="SVGID_1_" d="M30.12,2.03c-15.52,0-28.1,12.58-28.1,28.1c0,15.52,12.58,28.1,28.1,28.1c15.52,0,28.1-12.58,28.1-28.1
			C58.21,14.61,45.63,2.03,30.12,2.03z M30.12,49.44c-10.67,0-19.32-8.65-19.32-19.32c0-10.67,8.65-19.32,19.32-19.32
			c10.67,0,19.32,8.65,19.32,19.32C49.43,40.79,40.79,49.44,30.12,49.44z"/>
	</defs>
	<clipPath id="SVGID_00000017479897592754986260000011361264829702802358_">
		<use xlink:href="#SVGID_1_"  style="overflow:visible;"/>
	</clipPath>
	<path style="clip-path:url(#SVGID_00000017479897592754986260000011361264829702802358_);fill:#84AEDB;" d="M49.68,15.47
		c-0.13,5.81-4.9,10.04-10.24,9.26c-1.74-0.26-2.24-1.18-2.34-2.68c-0.29-4.65,3.55-8.94,8.34-9.29c0.49-0.04,0.99-0.04,1.49-0.04
		C49.52,12.7,49.74,12.92,49.68,15.47z"/>
	<path style="clip-path:url(#SVGID_00000017479897592754986260000011361264829702802358_);fill:#84AEDB;" d="M10.55,15.47
		c0.13,5.81,4.9,10.04,10.24,9.26c1.74-0.26,2.24-1.18,2.34-2.68c0.29-4.65-3.55-8.94-8.34-9.29c-0.49-0.04-0.99-0.04-1.49-0.04
		C10.71,12.7,10.49,12.92,10.55,15.47z"/>
	<path style="clip-path:url(#SVGID_00000017479897592754986260000011361264829702802358_);fill:#232B54;" d="M41.83,31.66
		c-2.43-0.04-4.57-0.85-6.45-2.4c-0.67-0.55-0.88-1.1-0.59-1.99c1.31-4.02,3.81-6.85,7.98-7.89c3.31-0.82,6.54-0.21,9.7,0.95
		c2.41,0.89,2.43,0.88,1.18,3.09c-1.74,3.09-3.83,5.84-7.21,7.32C44.96,31.4,43.43,31.72,41.83,31.66z"/>
	<path style="clip-path:url(#SVGID_00000017479897592754986260000011361264829702802358_);fill:#232B54;" d="M18.41,31.66
		c2.43-0.04,4.57-0.85,6.45-2.4c0.67-0.55,0.88-1.1,0.59-1.99c-1.31-4.02-3.81-6.85-7.98-7.89c-3.31-0.82-6.54-0.21-9.7,0.95
		c-2.41,0.89-2.43,0.88-1.18,3.09c1.74,3.09,3.83,5.84,7.21,7.32C15.28,31.4,16.8,31.72,18.41,31.66z"/>
</g>
<g>
	<defs>
		<circle id="SVGID_00000038400599453255432390000011604512043116495000_" cx="30.12" cy="30.12" r="19.32"/>
	</defs>
	<clipPath id="SVGID_00000145026565526535561190000001327313333613337752_">
		<use xlink:href="#SVGID_00000038400599453255432390000011604512043116495000_"  style="overflow:visible;"/>
	</clipPath>
	<path style="clip-path:url(#SVGID_00000145026565526535561190000001327313333613337752_);fill:#232B54;" d="M34.68,21.43
		c0.02,2.74-1.67,5.34-4.15,6.43c-0.38,0.17-0.66,0.07-0.99-0.09c-3.47-1.67-4.96-6.15-3.29-9.97c0.76-1.74,1.91-3.23,3.26-4.56
		c0.27-0.27,0.53-0.6,0.97-0.18C32.87,15.35,34.67,17.94,34.68,21.43z"/>
	<path style="clip-path:url(#SVGID_00000145026565526535561190000001327313333613337752_);fill:#232B54;" d="M34.68,21.43
		c0.02,2.74-1.67,5.34-4.15,6.43c-0.38,0.17-0.66,0.07-0.99-0.09c-3.47-1.67-4.96-6.15-3.29-9.97c0.76-1.74,1.91-3.23,3.26-4.56
		c0.27-0.27,0.53-0.6,0.97-0.18C32.87,15.35,34.67,17.94,34.68,21.43z"/>
	<path style="clip-path:url(#SVGID_00000145026565526535561190000001327313333613337752_);fill:#232B54;" d="M38.77,36.16
		c-1.8-0.03-3.38-0.63-4.77-1.77c-0.49-0.41-0.65-0.81-0.43-1.47c0.97-2.97,2.81-5.06,5.9-5.83c2.45-0.61,4.84-0.16,7.17,0.71
		c1.78,0.66,1.79,0.65,0.87,2.29c-1.29,2.28-2.83,4.32-5.33,5.41C41.09,35.97,39.96,36.21,38.77,36.16z"/>
	<path style="clip-path:url(#SVGID_00000145026565526535561190000001327313333613337752_);fill:#84AEDB;" d="M41.65,21.85
		c-0.06,2.9-2.45,5.02-5.12,4.62c-0.87-0.13-1.12-0.59-1.17-1.34c-0.14-2.32,1.77-4.46,4.17-4.64c0.25-0.02,0.49-0.02,0.74-0.02
		C41.57,20.47,41.68,20.58,41.65,21.85z"/>
	<path style="clip-path:url(#SVGID_00000145026565526535561190000001327313333613337752_);fill:#232B54;" d="M21.46,36.16
		c1.8-0.03,3.38-0.63,4.77-1.77c0.49-0.41,0.65-0.81,0.43-1.47c-0.97-2.97-2.81-5.06-5.9-5.83c-2.45-0.61-4.84-0.16-7.17,0.71
		c-1.78,0.66-1.79,0.65-0.87,2.29c1.29,2.28,2.83,4.32,5.33,5.41C19.15,35.97,20.27,36.21,21.46,36.16z"/>
	<path style="clip-path:url(#SVGID_00000145026565526535561190000001327313333613337752_);fill:#84AEDB;" d="M18.59,21.85
		c0.06,2.9,2.45,5.02,5.12,4.62c0.87-0.13,1.12-0.59,1.17-1.34c0.14-2.32-1.77-4.46-4.17-4.64c-0.25-0.02-0.49-0.02-0.74-0.02
		C18.67,20.47,18.56,20.58,18.59,21.85z"/>
	<g style="clip-path:url(#SVGID_00000145026565526535561190000001327313333613337752_);">
		<path class="st1" d="M31.13,28.14L31.13,28.14c-0.19,0.1-0.38,0.2-0.57,0.28c-0.41,0.18-0.71,0.08-1.07-0.1
			c-0.12-0.06-0.24-0.12-0.35-0.18h-0.03c-0.26,6.84-4.52,8.06-4.52,8.06s2.77,8.5,5.53,14.14c2.77-5.64,5.53-14.14,5.53-14.14
			S31.39,34.98,31.13,28.14z"/>
		<rect x="29.91" y="39.47" class="st0" width="0.4" height="11.09"/>
		<path class="st0" d="M31.86,38.07c0-0.96-0.78-1.74-1.74-1.74c-0.96,0-1.74,0.78-1.74,1.74c0,0.96,0.78,1.74,1.74,1.74
			C31.08,39.81,31.86,39.03,31.86,38.07z"/>
	</g>
</g>
<path class="st1" d="M30.12,49.79c-10.85,0-19.67-8.82-19.67-19.67c0-10.85,8.82-19.67,19.67-19.67s19.67,8.82,19.67,19.67
	C49.79,40.97,40.96,49.79,30.12,49.79z M30.12,11.16c-10.46,0-18.97,8.51-18.97,18.97c0,10.46,8.51,18.96,18.97,18.96
	s18.97-8.51,18.97-18.96C49.08,19.67,40.57,11.16,30.12,11.16z"/>
<g>
	<path class="st1" d="M53.95,31.67l0.42,1.28c0.02,0.05,0.07,0.09,0.12,0.09h1.35c0.12,0,0.18,0.16,0.08,0.23l-1.09,0.79
		c-0.04,0.03-0.06,0.09-0.05,0.14l0.42,1.28c0.04,0.12-0.1,0.22-0.2,0.14l-1.09-0.79c-0.04-0.03-0.11-0.03-0.15,0l-1.09,0.79
		c-0.1,0.07-0.24-0.03-0.2-0.14l0.42-1.28c0.02-0.05,0-0.11-0.05-0.14l-1.09-0.79c-0.1-0.07-0.05-0.23,0.08-0.23h1.35
		c0.06,0,0.1-0.04,0.12-0.09l0.42-1.28C53.75,31.55,53.92,31.55,53.95,31.67z"/>
	<path class="st1" d="M6.52,31.67l0.42,1.28c0.02,0.05,0.07,0.09,0.12,0.09h1.35c0.12,0,0.18,0.16,0.08,0.23l-1.09,0.79
		c-0.04,0.03-0.06,0.09-0.05,0.14l0.42,1.28c0.04,0.12-0.1,0.22-0.2,0.14l-1.09-0.79c-0.04-0.03-0.11-0.03-0.15,0l-1.09,0.79
		c-0.1,0.07-0.24-0.03-0.2-0.14l0.42-1.28c0.02-0.05,0-0.11-0.05-0.14l-1.09-0.79c-0.1-0.07-0.05-0.23,0.08-0.23h1.35
		c0.06,0,0.1-0.04,0.12-0.09l0.42-1.28C6.32,31.55,6.49,31.55,6.52,31.67z"/>
</g>
</svg>
