<svg xml:space="preserve" style="max-height: 500px" viewBox="7.6865717118 12.6502234236 665.7539400000001 657.58518" y="0px" x="0px" xmlns:xlink="http://www.w3.org/1999/xlink" xmlns="http://www.w3.org/2000/svg" id="Layer_1" version="1.1" width="665.7539400000001" height="657.58518">
<style type="text/css">
	.st0{fill:url(#SVGID_1_);}
	.st1{fill:#FFFFFF;}
	.st2{fill:none;stroke:#FFFFFF;stroke-width:27.659;stroke-miterlimit:10;}
	.st3{fill:none;stroke:#FFFFFF;stroke-width:26;stroke-miterlimit:10;}
	.st4{fill:none;stroke:#FFFFFF;stroke-width:30.0182;stroke-miterlimit:10;}
	.st5{fill:url(#SVGID_2_);}
	.st6{clip-path:url(#SVGID_4_);}
	.st7{fill:url(#SVGID_5_);}
	.st8{fill:url(#SVGID_6_);}
</style>
<g>
	
		<linearGradient gradientTransform="matrix(0.7071 -0.7071 0.7071 0.7071 -1347.5099 513.4982)" y2="1328.7793" x2="1573.6259" y1="828.3832" x1="1073.2299" gradientUnits="userSpaceOnUse" id="SVGID_1_">
		<stop style="stop-color:#1744B8" offset="0"/>
		<stop style="stop-color:#1744B8" offset="0.01"/>
		<stop style="stop-color:#8927D5" offset="1"/>
	</linearGradient>
	<path d="M668.77,307.07l-296.4-296.4v88.79c37.61,12.7,64.7,48.24,64.7,90.14c0,4.63-0.35,9.18-0.99,13.63l54.03,44.18&#10;&#9;&#9;c10.59-5.49,22.62-8.62,35.38-8.62c42.51,0,76.98,34.46,76.98,76.98s-34.46,76.98-76.98,76.98s-76.98-34.46-76.98-76.98&#10;&#9;&#9;c0-10.75,2.21-20.99,6.19-30.28l-40.97-33.5c-10.96,12.61-25.19,22.3-41.36,27.77v97.74c41.89,13.36,72.23,52.57,72.23,98.89&#10;&#9;&#9;c0,57.32-46.47,103.79-103.79,103.79s-103.79-46.47-103.79-103.79c0-45.99,29.92-84.97,71.35-98.59v-99.15&#10;&#9;&#9;c-15.89-5.99-29.75-16.12-40.28-29.06l-43.2,34.75c2.61,7.64,4.05,15.82,4.05,24.34c0,41.56-33.69,75.25-75.25,75.25&#10;&#9;&#9;c-41.56,0-75.25-33.69-75.25-75.25c0-41.56,33.69-75.25,75.25-75.25c14.08,0,27.25,3.88,38.52,10.6l55.12-44.34&#10;&#9;&#9;c-0.35-3.31-0.54-6.67-0.54-10.07c0-40.73,25.6-75.46,61.58-89.03V10.67l-296.4,296.4c-13.51,13.51-13.51,35.42,0,48.93&#10;&#9;&#9;L315.9,659.93c13.51,13.51,35.42,13.51,48.93,0l303.94-303.94C682.28,342.48,682.28,320.58,668.77,307.07z" class="st0"/>
</g>
</svg>